<svg width="24" height="24" viewBox="0 0 24 24" fill="none" xmlns="http://www.w3.org/2000/svg">
<path d="M20.475 23.3L19.175 22H4.00005V20H6.00005V17C6.00005 15.9833 6.23755 15.0292 6.71255 14.1375C7.18755 13.2458 7.85005 12.5333 8.70005 12C8.16672 11.6667 7.71255 11.2667 7.33755 10.8C6.96255 10.3333 6.65838 9.81667 6.42505 9.25L0.675049 3.5L2.10005 2.075L21.9 21.875L20.475 23.3ZM15.05 12.15L13.55 10.675C14.3 10.3583 14.8959 9.86667 15.3375 9.2C15.7792 8.53333 16 7.8 16 7V4H8.00005V5.125L4.87505 2H20V4H18V7C18 8.06667 17.7417 9.05833 17.225 9.975C16.7084 10.8917 15.9834 11.6167 15.05 12.15ZM8.00005 20H16V18.825L10.475 13.3C9.72505 13.6167 9.12505 14.1083 8.67505 14.775C8.22505 15.4417 8.00005 16.1833 8.00005 17V20Z" fill="#49454E"/>
</svg>
