<svg width="40" height="40" viewBox="0 0 40 40" fill="none" xmlns="http://www.w3.org/2000/svg">
<path d="M4.5 6C3.67157 6 3 6.67157 3 7.5V34.5C3 35.3284 3.67157 36 4.5 36H17C17.5523 36 18 35.5523 18 35C18 34.4477 17.5523 34 17 34H5.5C5.22385 34 5 33.7761 5 33.5V22.4082C5 22.1827 5.18274 22 5.40817 22H20C20.5523 22 21 21.5523 21 21C21 20.4477 20.5523 20 20 20H5.41476C5.1857 20 5 19.8143 5 19.5852V8.5C5 8.22386 5.22385 8 5.5 8H34.5C34.7762 8 35 8.22385 35 8.5V17.5C35 18.0523 35.4477 18.5 36 18.5C36.5523 18.5 37 18.0523 37 17.5V7.5C37 6.67157 36.3284 6 35.5 6H4.5Z" fill="#49454E"/>
<path fill-rule="evenodd" clip-rule="evenodd" d="M14 14C14 15.6569 12.6569 17 11 17C9.34314 17 8 15.6569 8 14C8 12.3431 9.34314 11 11 11C12.6569 11 14 12.3431 14 14ZM12 14C12 14.5523 11.5523 15 11 15C10.4477 15 10 14.5523 10 14C10 13.4477 10.4477 13 11 13C11.5523 13 12 13.4477 12 14Z" fill="#49454E"/>
<path fill-rule="evenodd" clip-rule="evenodd" d="M11 31C12.6569 31 14 29.6569 14 28C14 26.3431 12.6569 25 11 25C9.34314 25 8 26.3431 8 28C8 29.6569 9.34314 31 11 31ZM11 29C11.5523 29 12 28.5523 12 28C12 27.4477 11.5523 27 11 27C10.4477 27 10 27.4477 10 28C10 28.5523 10.4477 29 11 29Z" fill="#49454E"/>
<path d="M16 12C16 11.4477 16.4477 11 17 11H32C32.5523 11 33 11.4477 33 12C33 12.5523 32.5523 13 32 13H17C16.4477 13 16 12.5523 16 12Z" fill="#49454E"/>
<path d="M16 16C16 15.4477 16.4477 15 17 15H25C25.5523 15 26 15.4477 26 16C26 16.5523 25.5523 17 25 17H17C16.4477 17 16 16.5523 16 16Z" fill="#49454E"/>
<path d="M4 2C3.44772 2 3 2.44772 3 3C3 3.55228 3.44772 4 4 4H19C19.5523 4 20 3.55228 20 3C20 2.44772 19.5523 2 19 2H4Z" fill="#49454E"/>
<g clip-path="url(#clip0_310_23)">
<rect x="29.0002" y="20" width="2" height="6" rx="1" fill="#49454E"/>
<rect x="29.0002" y="32" width="2" height="6" rx="1" fill="#49454E"/>
<rect x="37.0713" y="34.6569" width="2" height="6" rx="1" transform="rotate(135 37.0713 34.6569)" fill="#49454E"/>
<rect x="28.5859" y="26.1716" width="2" height="6" rx="1" transform="rotate(135 28.5859 26.1716)" fill="#49454E"/>
<rect x="24.3433" y="36.0712" width="2" height="6" rx="1" transform="rotate(-135 24.3433 36.0712)" fill="#49454E"/>
<rect x="32.8286" y="27.5858" width="2" height="6" rx="1" transform="rotate(-135 32.8286 27.5858)" fill="#49454E"/>
<rect x="21" y="30.0001" width="2" height="6" rx="1" transform="rotate(-90 21 30.0001)" fill="#49454E"/>
<rect x="33.0002" y="30.0001" width="2" height="6" rx="1" transform="rotate(-90 33.0002 30.0001)" fill="#49454E"/>
</g>
<defs>
<clipPath id="clip0_310_23">
<rect width="18.0002" height="18" fill="white" transform="translate(21 20)"/>
</clipPath>
</defs>
</svg>
